<?xml version="1.0" standalone="no"?>
<!DOCTYPE svg PUBLIC "-//W3C//DTD SVG 20010904//EN"
 "http://www.w3.org/TR/2001/REC-SVG-20010904/DTD/svg10.dtd">
<svg version="1.0" xmlns="http://www.w3.org/2000/svg"
 width="1300.000000pt" height="1390.000000pt" viewBox="0 0 1300.000000 1390.000000"
 preserveAspectRatio="xMidYMid meet">

<g transform="translate(0.000000,1390.000000) scale(0.100000,-0.100000)"
fill="#000000" stroke="none">
<path d="M6820 12121 c0 -162 -22 -295 -75 -455 -71 -217 -203 -474 -353 -690
-62 -87 -66 -87 -76 13 -8 72 -45 178 -81 233 -57 87 -162 161 -246 174 l-34
6 3 -110 c3 -87 -1 -133 -17 -211 -57 -267 -192 -490 -556 -921 -473 -561
-616 -844 -603 -1196 2 -57 0 -104 -3 -104 -15 0 -156 84 -207 123 -147 112
-210 301 -183 552 6 60 9 110 7 113 -10 9 -98 -73 -143 -132 -127 -168 -170
-406 -123 -681 18 -110 18 -110 -2 -125 -63 -47 -113 -100 -135 -145 -30 -58
-40 -156 -25 -224 l11 -44 -74 -80 c-41 -44 -99 -117 -130 -163 -119 -176
-245 -475 -231 -546 10 -49 -15 -160 -36 -166 -21 -5 -36 -52 -74 -224 -40
-185 -74 -363 -99 -533 -14 -88 -27 -171 -30 -185 -2 -14 -14 -133 -26 -265
-18 -198 -20 -289 -17 -517 3 -153 2 -278 -1 -278 -3 0 -11 10 -17 23 -7 12
-35 65 -63 117 -315 575 -479 1307 -442 1963 31 530 153 1004 382 1477 161
334 438 722 703 985 547 543 1162 878 1908 1039 42 10 82 23 88 31 22 27 51
203 48 293 l-3 87 -30 -2 c-72 -6 -335 -65 -490 -110 -604 -175 -1145 -477
-1628 -908 -99 -88 -327 -328 -433 -456 -246 -296 -484 -696 -634 -1069 -37
-92 -43 -119 -50 -212 -7 -109 -18 -138 -50 -138 -23 0 -34 -28 -74 -192 -95
-392 -120 -604 -120 -1013 0 -264 3 -336 22 -485 81 -620 252 -1119 564 -1650
169 -286 455 -644 689 -861 451 -419 917 -707 1464 -905 72 -26 150 -53 175
-59 25 -7 83 -24 130 -38 47 -14 101 -28 120 -31 19 -4 62 -13 95 -21 104 -25
275 -53 435 -72 217 -25 694 -25 905 0 767 91 1443 360 2049 816 305 229 622
550 816 825 19 27 47 62 62 78 25 27 33 50 40 118 2 19 10 26 30 28 42 5 105
101 235 352 228 445 365 888 434 1405 20 147 23 215 23 495 0 283 -3 348 -23
500 -90 686 -309 1273 -683 1830 -274 408 -683 821 -1088 1098 -309 212 -711
412 -1025 512 -38 12 -88 28 -110 36 -22 7 -100 29 -173 48 l-133 35 -9 -25
c-6 -14 -10 -33 -10 -43 0 -30 -29 -129 -61 -212 -18 -44 -29 -82 -26 -85 3
-3 64 -21 137 -40 1037 -268 1925 -979 2409 -1927 98 -194 182 -395 236 -567
104 -330 157 -624 175 -965 31 -598 -85 -1204 -332 -1745 -60 -133 -154 -310
-178 -340 l-21 -25 8 120 c17 262 -7 709 -57 1045 -40 267 -107 604 -152 770
-11 41 -24 93 -29 115 -73 338 -213 629 -399 828 l-70 75 6 99 c6 94 5 103
-21 161 -28 63 -102 143 -143 156 -26 9 -27 20 -7 141 41 249 2 484 -106 646
-35 53 -143 159 -161 159 -10 0 -15 -28 -22 -115 -11 -133 -74 -278 -168 -380
-69 -76 -206 -188 -221 -182 -8 3 -23 31 -35 64 -43 115 -107 214 -398 616
-123 170 -185 268 -250 397 -82 165 -141 360 -151 506 -4 60 -10 84 -19 84 -8
0 -54 -39 -102 -87 -142 -141 -201 -262 -209 -436 -9 -163 29 -297 172 -612
132 -290 176 -410 196 -530 16 -102 7 -226 -24 -301 l-23 -59 -48 0 -49 0 -27
95 c-47 162 -111 283 -227 428 -69 85 -201 208 -211 197 -3 -3 -4 -67 -3 -142
3 -191 -31 -448 -73 -548 l-15 -35 -184 0 -183 0 -31 93 c-53 156 -67 246 -66
407 1 195 38 353 133 566 44 97 158 300 200 356 19 26 49 66 66 90 60 84 198
274 264 363 272 368 394 608 422 832 33 267 -73 527 -316 781 -55 57 -117 117
-138 134 l-38 30 0 -141z m296 -253 c56 -85 106 -195 130 -288 23 -86 23 -253
1 -338 -22 -83 -74 -207 -99 -235 -18 -20 -19 -20 -12 -2 61 168 78 269 71
410 -11 212 -86 408 -235 610 l-44 60 70 -72 c39 -40 92 -105 118 -145z
m-1040 -536 c120 -87 206 -248 203 -382 l-1 -45 -14 64 c-27 127 -96 245 -202
346 -53 50 -45 59 14 17z m1102 -998 c-58 -170 -41 -342 67 -699 79 -262 71
-275 -18 -28 -92 259 -108 325 -109 458 -2 114 13 195 52 281 26 61 31 55 8
-12z m-699 -291 c-5 -14 -28 -48 -50 -75 -50 -59 -141 -221 -193 -340 -64
-151 -106 -350 -106 -508 0 -122 56 -415 100 -517 6 -15 6 -23 0 -23 -15 0
-107 198 -129 279 -80 292 -30 630 136 916 53 92 82 132 171 233 64 72 90 85
71 35z m-1207 -184 c-184 -221 -300 -453 -352 -707 -11 -55 -20 -133 -20 -174
-1 -97 -20 -68 -27 40 -17 260 132 608 358 835 48 48 92 87 98 87 6 0 -20 -36
-57 -81z m3354 -454 c-9 -152 -80 -280 -207 -377 -72 -54 -176 -114 -184 -106
-3 2 29 28 71 58 41 29 106 86 144 127 108 113 159 235 161 384 1 70 2 72 11
34 5 -22 7 -76 4 -120z m-4296 30 c-22 -138 20 -291 110 -403 53 -66 154 -143
226 -173 29 -13 54 -26 54 -31 0 -11 4 -11 -79 17 -185 62 -306 189 -342 356
-15 70 -7 213 16 267 10 24 19 41 22 39 2 -3 -1 -35 -7 -72z m1283 -144 c-4
-85 -1 -188 7 -267 17 -157 15 -195 -11 -253 -36 -83 -117 -146 -201 -157 -41
-6 -46 -4 -51 17 -30 112 27 419 109 581 37 74 132 218 143 218 5 0 7 -56 4
-139z m1299 -103 c125 -104 233 -312 263 -505 12 -77 -9 -45 -44 67 -58 186
-151 343 -266 449 -25 23 -45 44 -45 47 0 9 45 -19 92 -58z m965 -185 c51 -86
72 -167 73 -278 0 -66 -4 -105 -12 -113 -12 -12 -129 -17 -140 -7 -2 3 1 33 9
67 7 35 16 134 19 221 4 86 10 157 15 157 4 0 20 -21 36 -47z m-433 -562 c40
-37 49 -83 37 -176 -6 -44 -20 -156 -31 -250 -53 -443 -65 -490 -156 -581
-109 -112 -166 -124 -571 -124 -197 0 -314 -4 -318 -10 -4 -7 -13 -6 -26 1
-26 13 -245 6 -321 -11 -52 -12 -60 -12 -77 4 -10 10 -47 24 -80 32 -84 19
-135 47 -192 104 -95 95 -104 131 -170 671 -28 236 -29 259 -15 292 8 20 30
46 48 57 33 20 44 20 940 18 l906 -3 26 -24z m-2242 -323 c25 -20 100 -205 93
-228 -10 -33 -42 -44 -71 -25 -14 9 -28 24 -31 33 -3 9 -19 48 -36 87 -34 80
-37 113 -11 132 22 16 36 16 56 1z m2665 -17 c10 -20 8 -33 -9 -75 -11 -28
-29 -74 -40 -102 -22 -57 -55 -81 -88 -64 -10 5 -21 18 -24 28 -6 19 51 176
80 220 20 31 64 27 81 -7z m749 -142 c51 -24 88 -70 104 -127 27 -104 -33
-208 -137 -238 -48 -14 -58 -14 -106 0 -59 17 -107 60 -131 118 -69 163 109
325 270 247z m-4042 -11 c13 -18 16 -53 16 -175 l0 -153 153 0 c206 0 197 8
197 -163 0 -73 -5 -139 -10 -147 -7 -12 -42 -16 -172 -20 l-163 -5 -3 -156
c-3 -200 2 -193 -161 -195 -110 -2 -147 5 -163 30 -4 6 -8 75 -8 153 0 78 -3
148 -6 157 -5 14 -29 16 -163 16 -109 0 -161 4 -169 12 -8 8 -12 55 -12 147 0
181 -11 171 189 171 l156 0 -3 144 c-3 117 -1 149 12 175 l17 31 139 0 c132 0
140 -1 154 -22z m3687 -310 c84 -29 133 -99 134 -188 0 -160 -188 -252 -313
-153 -57 45 -85 106 -78 172 12 129 137 211 257 169z m712 -25 c53 -37 82 -94
82 -158 -2 -164 -181 -258 -308 -161 -60 46 -82 89 -82 163 0 52 4 68 30 104
17 23 50 53 75 67 61 32 145 27 203 -15z m-357 -314 c49 -23 98 -89 108 -145
11 -55 -17 -136 -59 -173 -87 -76 -181 -79 -262 -8 -175 154 4 428 213 326z
m-2995 -458 c56 -27 111 -80 147 -141 24 -41 27 -55 27 -145 0 -117 -16 -158
-91 -231 -149 -144 -408 -96 -500 93 -24 48 -28 69 -28 137 1 133 58 226 177
286 57 29 69 31 142 28 57 -3 93 -11 126 -27z m2027 0 c59 -30 123 -96 152
-156 19 -39 24 -66 24 -130 1 -70 -3 -88 -29 -139 -138 -272 -549 -213 -593
86 -24 163 63 301 228 362 8 3 51 4 95 3 59 -3 92 -9 123 -26z m-977 -561 c12
-7 19 -21 19 -40 0 -19 -7 -33 -19 -40 -12 -6 -92 -10 -190 -10 -158 0 -173 2
-191 20 -11 11 -20 25 -20 30 0 6 9 19 20 30 18 18 33 20 191 20 98 0 178 -4
190 -10z m1198 -420 c169 -41 301 -141 416 -316 74 -112 192 -350 350 -704 70
-157 139 -300 152 -318 28 -37 88 -70 146 -80 22 -4 42 -12 43 -17 3 -11 -190
-165 -322 -257 -316 -221 -682 -400 -1044 -511 -655 -201 -1343 -220 -2020
-56 -349 85 -728 243 -1045 437 -184 112 -513 356 -522 388 -2 7 15 13 45 16
53 5 127 49 154 90 8 13 83 176 167 363 221 494 323 676 450 804 78 79 174
132 287 160 76 19 129 20 1369 20 1261 1 1292 0 1374 -19z"/>
<path d="M4280 7592 c0 -13 61 -106 72 -110 17 -7 6 -39 -32 -100 -22 -34 -40
-65 -40 -67 0 -7 66 29 93 52 38 31 53 29 114 -12 29 -19 57 -35 62 -35 14 0
3 28 -31 74 -35 49 -35 67 1 119 15 23 34 53 41 66 l13 24 -49 -28 c-27 -15
-58 -34 -69 -42 -28 -18 -45 -16 -85 10 -76 51 -90 59 -90 49z m162 -93 c38
13 41 11 29 -23 -7 -17 -7 -35 -1 -52 13 -34 13 -39 -5 -24 -9 8 -30 11 -53 8
l-37 -5 0 52 c0 48 2 52 18 43 12 -6 29 -6 49 1z"/>
<path d="M5404 6784 c-62 -22 -126 -89 -147 -153 -22 -69 -21 -98 3 -164 65
-174 301 -213 419 -70 41 49 65 130 56 186 -9 52 -45 125 -77 154 -62 58 -168
77 -254 47z m153 -55 c62 -23 123 -109 123 -174 0 -74 -76 -168 -145 -181 -92
-17 -177 23 -213 100 -27 56 -28 101 -3 158 20 46 39 66 86 91 35 19 111 22
152 6z"/>
<path d="M7429 6786 c-84 -30 -148 -108 -163 -202 -15 -89 40 -194 127 -244
128 -73 295 -12 347 127 24 65 25 93 5 161 -39 130 -187 204 -316 158z m166
-65 c49 -22 68 -43 90 -99 55 -137 -68 -276 -220 -248 -70 14 -144 107 -145
184 0 64 60 152 120 175 33 12 117 6 155 -12z"/>
<path d="M6322 11403 l-123 -4 49 -54 c54 -58 92 -119 113 -177 7 -21 16 -38
20 -38 16 0 162 263 152 273 -3 4 -25 6 -47 5 -23 -1 -96 -4 -164 -5z"/>
<path d="M6876 10099 c-25 -28 -50 -67 -56 -87 -15 -54 -12 -149 5 -217 16
-61 100 -239 134 -284 l19 -24 16 31 c25 48 19 122 -20 292 -32 136 -36 166
-32 248 6 110 0 114 -66 41z m49 -91 c0 -84 5 -127 19 -166 40 -115 57 -249
36 -282 -7 -11 -10 4 -10 50 0 36 -7 88 -16 115 -66 217 -76 297 -43 368 7 15
13 27 13 27 1 0 1 -51 1 -112z"/>
<path d="M8366 9799 c-11 -94 -41 -179 -101 -281 -80 -138 -97 -177 -103 -240
-3 -46 0 -67 21 -112 18 -38 32 -56 44 -56 22 0 124 98 165 158 16 23 44 73
61 110 30 63 32 73 32 182 0 114 -1 118 -37 191 -21 41 -46 83 -56 92 -19 17
-20 16 -26 -44z m-8 -227 c-13 -26 -45 -86 -71 -133 -26 -47 -56 -119 -67
-160 l-20 -74 4 65 c4 70 22 114 110 265 25 44 49 89 53 100 6 18 7 19 11 2 2
-10 -7 -40 -20 -65z"/>
<path d="M4579 9752 c-113 -165 -141 -349 -79 -514 33 -89 168 -254 190 -232
5 5 17 38 26 74 21 81 15 182 -16 265 -49 134 -71 245 -69 358 1 59 0 110 -3
112 -2 2 -24 -26 -49 -63z m76 -342 c46 -138 64 -245 50 -296 -7 -25 -10 -18
-16 41 -4 39 -27 131 -52 205 -48 146 -63 218 -51 253 7 19 9 15 16 -23 5 -25
29 -106 53 -180z"/>
<path d="M6495 9537 c-45 -61 -86 -134 -111 -197 -26 -67 -29 -87 -29 -185 1
-96 4 -118 27 -172 43 -102 146 -233 183 -233 9 0 21 21 31 57 24 83 15 203
-25 315 -41 117 -64 254 -59 351 5 77 2 89 -17 64z m-5 -207 c0 -23 23 -108
50 -189 44 -130 50 -158 50 -230 0 -47 -4 -81 -10 -81 -6 0 -10 27 -10 60 0
45 -12 95 -46 198 -48 140 -70 282 -45 282 6 0 11 -17 11 -40z"/>
<path d="M3501 7374 c0 -11 3 -14 6 -6 3 7 2 16 -1 19 -3 4 -6 -2 -5 -13z"/>
<path d="M9940 4975 c-7 -9 -10 -18 -7 -21 3 -3 10 4 17 15 13 25 8 27 -10 6z"/>
</g>
</svg>
